<svg width="340" height="51" viewBox="0 0 340 51" fill="none" xmlns="http://www.w3.org/2000/svg">
<rect width="340" height="51" rx="10" fill="#688BE3"/>
<path d="M165.393 17.592H167.537V32.456H165.393V17.592ZM167.057 23.08H169.681V24.824H167.057V23.08ZM156.497 27.128H157.745C160.241 27.128 162.209 27.048 164.385 26.664L164.593 28.424C162.353 28.824 160.321 28.888 157.745 28.888H156.497V27.128ZM156.497 18.968H163.409V20.68H158.609V27.976H156.497V18.968ZM177.344 17.88C180.608 17.88 182.704 18.984 182.704 20.776C182.704 22.568 180.608 23.656 177.344 23.656C174.08 23.656 171.984 22.568 171.984 20.776C171.984 18.984 174.08 17.88 177.344 17.88ZM177.344 19.528C175.312 19.528 174.176 19.928 174.176 20.776C174.176 21.608 175.312 22.024 177.344 22.024C179.36 22.024 180.512 21.608 180.512 20.776C180.512 19.928 179.36 19.528 177.344 19.528ZM172.192 27.208H182.432V32.264H172.192V27.208ZM180.352 28.888H174.288V30.584H180.352V28.888ZM170.64 24.504H184.032V26.184H170.64V24.504Z" fill="white"/>
</svg>
