<svg width="340" height="51" viewBox="0 0 340 51" fill="none" xmlns="http://www.w3.org/2000/svg">
<rect width="340" height="51" rx="10" fill="#688BE3"/>
<path d="M158.017 27.08H168.561V32.424H166.417V28.76H158.017V27.08ZM166.417 17.608H168.561V26.424H166.417V17.608ZM157.793 19.384H159.297V20.232C159.297 22.648 158.753 25.048 156.737 26.12L155.633 24.6C157.281 23.704 157.793 21.928 157.793 20.232V19.384ZM158.337 19.384H159.777V20.232C159.777 21.784 160.161 23.656 161.793 24.728L160.865 26.264C158.785 25.08 158.337 22.424 158.337 20.232V19.384ZM161.953 19.384H163.409V20.232C163.409 22.456 162.961 25.096 160.865 26.264L159.953 24.728C161.585 23.672 161.953 21.8 161.953 20.232V19.384ZM162.465 19.384H163.985V20.232C163.985 21.928 164.465 23.704 166.129 24.6L165.041 26.12C163.009 25.032 162.465 22.648 162.465 20.232V19.384ZM156.193 18.584H160.593V20.264H156.193V18.584ZM161.153 18.584H165.409V20.264H161.153V18.584ZM180.848 17.608H182.992V32.424H180.848V17.608ZM176.48 19.144H178.592C178.592 23.672 177.056 27.384 171.792 29.928L170.688 28.232C174.944 26.184 176.48 23.496 176.48 19.528V19.144ZM171.472 19.144H177.488V20.824H171.472V19.144Z" fill="white"/>
</svg>
